Coordinates
version=1
nRows=8
nColumns=40
inDegrees=yes

Units are S.I. units (second, meters, Newtons, ...)
If the header above contains a line with 'inDegrees', this indicates whether rotational values are in degrees (yes) or radians (no).

endheader
time	pelvis_tilt	pelvis_list	pelvis_rotation	pelvis_tx	pelvis_ty	pelvis_tz	hip_flexion_r	hip_adduction_r	hip_rotation_r	knee_angle_r	knee_angle_r_beta	ankle_angle_r	subtalar_angle_r	mtp_angle_r	hip_flexion_l	hip_adduction_l	hip_rotation_l	knee_angle_l	knee_angle_l_beta	ankle_angle_l	subtalar_angle_l	mtp_angle_l	lumbar_extension	lumbar_bending	lumbar_rotation	arm_flex_r	arm_add_r	arm_rot_r	elbow_flex_r	pro_sup_r	wrist_flex_r	wrist_dev_r	arm_flex_l	arm_add_l	arm_rot_l	elbow_flex_l	pro_sup_l	wrist_flex_l	wrist_dev_l
      3.93300000	     25.12711668	     -0.73000262	      3.95745459	      0.02714451	      1.34029380	     -0.00624784	     20.57031861	    -13.37421573	    -18.40686359	     79.26881623	      1.38350184	    -14.30057061	    -21.88074151	      0.00000000	     26.80130276	     -2.79219299	      3.20817320	     58.35845797	      1.01854724	    -20.11005418	    -29.95133068	      0.00000000	    -77.86651272	      6.87802704	      4.64649732	     42.10466178	    -15.59804895	    -17.69704923	     46.26197863	     48.13726821	      0.00000000	      0.00000000	     53.66573779	     12.83600012	    -27.50902575	     44.06265462	     51.36172870	      0.00000000	      0.00000000
      3.95000000	     25.11166181	     -1.15494566	      3.65254724	      0.02763949	      1.34026921	     -0.00613973	     23.54312546	    -13.84046738	    -17.66424313	     83.38926499	      1.45541723	    -14.86864074	    -21.21132499	      0.00000000	     23.32990032	     -3.83902670	      2.16625860	     53.24506212	      0.92930164	    -20.29976251	    -29.09095878	      0.00000000	    -77.84298726	      6.86131156	      5.11272612	     42.29675665	    -15.47414075	    -17.60051663	     46.11295369	     48.16580418	      0.00000000	      0.00000000	     53.58828985	     12.83876870	    -27.81667881	     44.08070337	     51.61869621	      0.00000000	      0.00000000
      3.96700000	     25.08089939	     -1.45894298	      3.17887673	      0.02815855	      1.34010298	     -0.00605457	     26.65175859	    -14.24849698	    -16.63762581	     87.10865513	      1.52033284	    -15.27421305	    -20.60575818	      0.00000000	     19.73844080	     -4.77782480	      0.62117517	     48.35726713	      0.84399353	    -20.66812661	    -28.51552560	      0.00000000	    -77.80242182	      6.72159927	      5.52634327	     42.48073362	    -15.36019574	    -17.56108624	     45.99459447	     48.24058606	      0.00000000	      0.00000000	     53.46633299	     12.82546341	    -28.12953130	     44.09047138	     52.17010632	      0.00000000	      0.00000000
      3.98300000	     24.84801505	     -1.95035306	      3.19809225	      0.02866300	      1.33946889	     -0.00644474	     29.82656793	    -14.64918257	    -16.24268041	     90.39121141	      1.57762425	    -15.61465752	    -20.43835535	      0.00000000	     16.54206888	     -5.70520526	     -0.29617841	     43.83303313	      0.76503075	    -21.42280719	    -26.77557302	      0.00000000	    -77.55258390	      7.12765343	      6.01639364	     42.57309746	    -15.27458847	    -17.45113492	     45.93717944	     48.29382596	      0.00000000	      0.00000000	     53.28598386	     12.76294801	    -28.27847386	     44.02135205	     52.30441156	      0.00000000	      0.00000000
      4.00000000	     24.74093402	     -2.20058353	      2.89355884	      0.02904053	      1.33892877	     -0.00647209	     32.92230038	    -14.94141212	    -15.33979042	     93.19391218	      1.62654061	    -15.42279044	    -20.40073156	      0.00000000	     13.40728349	     -6.42040800	     -1.61184251	     40.00173850	      0.69816204	    -22.17050314	    -25.50862581	      0.00000000	    -77.39717335	      7.12823756	      6.34337555	     42.63590986	    -15.16617529	    -17.39178435	     45.88185605	     48.34791860	      0.00000000	      0.00000000	     53.14483725	     12.65272541	    -28.37016346	     43.93561112	     52.44777735	      0.00000000	      0.00000000
      4.01700000	     24.62582313	     -2.53141564	      2.82356553	      0.02936936	      1.33830408	     -0.00662826	     35.82402661	    -15.04892576	    -14.64570016	     95.49692866	      1.66673583	    -14.26221410	    -20.69321941	      0.00000000	     10.81683404	     -7.10538075	     -2.33992505	     37.26679568	      0.65042829	    -23.11378834	    -24.55229820	      0.00000000	    -77.16549145	      7.31559091	      6.68939984	     42.58893070	    -15.04930565	    -17.24362261	     45.82853011	     48.39945657	      0.00000000	      0.00000000	     52.95471515	     12.53229109	    -28.41817101	     43.80378336	     52.54430704	      0.00000000	      0.00000000
      4.03300000	     24.66417884	     -2.61206931	      2.49826235	      0.02953382	      1.33800687	     -0.00659956	     38.56547753	    -15.07346533	    -13.46382726	     97.29804636	      1.69817126	    -12.55955265	    -20.65480417	      0.00000000	      8.29996942	     -7.51453712	     -3.22012712	     35.29576022	      0.61602723	    -24.26077128	    -24.28912635	      0.00000000	    -77.06476039	      7.16632441	      6.85897725	     42.50138449	    -14.91455308	    -17.12062679	     45.81372466	     48.41114561	      0.00000000	      0.00000000	     52.79289827	     12.35582491	    -28.39203875	     43.65896552	     52.66765704	      0.00000000	      0.00000000
      4.05000000	     24.54991570	     -2.96451938	      2.75500682	      0.02945428	      1.33767497	     -0.00713476	     40.89362464	    -15.08034690	    -13.03064312	     98.22512071	      1.71435176	    -11.25871840	    -21.07448338	      0.00000000	      6.72452047	     -8.05605217	     -2.96546279	     34.54986062	      0.60300882	    -24.81733591	    -23.91343451	      0.00000000	    -76.87166373	      7.65218641	      7.16724647	     42.43539409	    -14.83118666	    -17.00080736	     45.81441316	     48.41441826	      0.00000000	      0.00000000	     52.64269633	     12.22754557	    -28.40639448	     43.57574606	     52.66786011	      0.00000000	      0.00000000
